<svg width="192" height="192" viewBox="0 0 192 192" fill="none" xmlns="http://www.w3.org/2000/svg">
<path opacity="0.9" d="M92.8364 90.3734L137.512 26.3659L148.569 34.1904L105.22 93.5122L92.8364 90.3734Z" fill="#FF1744"/>
<path opacity="0.8" d="M92.8364 90.3734L173.774 85.7779L175.409 98.7475L101.416 97.5701L92.8364 90.3734Z" fill="#2979FF"/>
<path opacity="0.9" d="M92.8364 90.3734L125.78 161.499L111.405 165.389L84.5648 100.832L92.8364 90.3734Z" fill="#00E676"/>
<path opacity="0.8" d="M92.8364 90.3734L11.8988 94.9689L10.2635 81.9992L84.2568 83.1767L92.8364 90.3734Z" fill="#FFD740"/>
<path d="M30.8586 35.592L19.9801 25.3015L16.354 28.7317L27.2324 39.0221L30.8586 35.592Z" fill="#FF4081"/>
<path d="M54.6267 50.6779L41.3033 57.9543L43.8674 62.1554L57.1907 54.879L54.6267 50.6779Z" fill="#7C4DFF"/>
<path d="M95.802 19.5749L80.9417 15.8083L79.6145 20.494L94.4747 24.2605L95.802 19.5749Z" fill="#00B0FF"/>
<path d="M129.796 37.429L118.917 47.7194L122.543 51.1495L133.422 40.8591L129.796 37.429Z" fill="#FFC400"/>
<path d="M170.697 85.7603L163.005 73.1572L158.564 75.5826L166.256 88.1858L170.697 85.7603Z" fill="#FF3D00"/>
<path d="M43.1932 100.7L28.3329 104.467L29.6602 109.152L44.5204 105.386L43.1932 100.7Z" fill="#1DE9B6"/>
<path d="M82.8315 142.846L69.5082 135.57L66.9441 139.771L80.2674 147.047L82.8315 142.846Z" fill="#D500F9"/>
<path d="M114.975 121.667L107.282 134.27L111.723 136.695L119.416 124.092L114.975 121.667Z" fill="#FF6D00"/>
<path d="M159.062 120.484L148.184 110.193L144.558 113.624L155.436 123.914L159.062 120.484Z" fill="#64DD17"/>
<path d="M55 70.473C57.2091 70.473 59 68.6821 59 66.473C59 64.2638 57.2091 62.473 55 62.473C52.7909 62.473 51 64.2638 51 66.473C51 68.6821 52.7909 70.473 55 70.473Z" fill="#FF4081"/>
<path d="M93 57.473C95.2091 57.473 97 55.906 97 53.973C97 52.04 95.2091 50.473 93 50.473C90.7909 50.473 89 52.04 89 53.973C89 55.906 90.7909 57.473 93 57.473Z" fill="#00B0FF"/>
<path d="M131.5 81.473C133.985 81.473 136 79.906 136 77.973C136 76.04 133.985 74.473 131.5 74.473C129.015 74.473 127 76.04 127 77.973C127 79.906 129.015 81.473 131.5 81.473Z" fill="#FFC400"/>
<path d="M81 118.473C83.2091 118.473 85 116.682 85 114.473C85 112.264 83.2091 110.473 81 110.473C78.7909 110.473 77 112.264 77 114.473C77 116.682 78.7909 118.473 81 118.473Z" fill="#7C4DFF"/>
<path d="M118 107.473C119.657 107.473 121 105.682 121 103.473C121 101.264 119.657 99.473 118 99.473C116.343 99.473 115 101.264 115 103.473C115 105.682 116.343 107.473 118 107.473Z" fill="#FF3D00"/>
<path d="M42 130.473C44.7614 130.473 47 128.906 47 126.973C47 125.04 44.7614 123.473 42 123.473C39.2386 123.473 37 125.04 37 126.973C37 128.906 39.2386 130.473 42 130.473Z" fill="#1DE9B6"/>
<path d="M157.5 57.473C159.433 57.473 161 55.906 161 53.973C161 52.04 159.433 50.473 157.5 50.473C155.567 50.473 154 52.04 154 53.973C154 55.906 155.567 57.473 157.5 57.473Z" fill="#D500F9"/>
<path d="M67 78.473L74 85.973L67 93.473L60 85.973L67 78.473Z" fill="#FF6D00"/>
<path d="M105.5 66.473L113 73.473L105.5 80.473L98 73.473L105.5 66.473Z" fill="#64DD17"/>
<path d="M131.5 126.473L139 133.973L131.5 141.473L124 133.973L131.5 126.473Z" fill="#FF4081"/>
<path d="M29 152.473L37 158.973L29 165.473L21 158.973L29 152.473Z" fill="#00B0FF"/>
<path d="M83.0023 30.1083L85.9648 38.3923L93.395 40.2756L86.4506 46.0486L86.9365 53.7048L78.3569 46.5081L67.1228 48.6827L71.5904 42.282L68.6279 33.998L76.058 35.8813L83.0023 30.1083Z" fill="#FFD740"/>
<path d="M138.349 91.8357L146.636 95.7118L153.298 92.0736L152.703 100.801L158.769 105.889L147.323 106.539L141.005 115.591L139.379 108.077L131.092 104.201L137.754 100.563L138.349 91.8357Z" fill="#FF1744"/>
</svg>
